<svg xmlns="http://www.w3.org/2000/svg" xml:space="preserve" width="67" height="62.75"><path d="M61.994 39.7c0 9.7-2.7 17.8-4.4 22-.5 1.3-2.4 1.3-3 0-.6-1.5-1.3-3.4-1.9-5.6 1.5-1 3-2.3 3.6-4 1.6-4-.5-8.5-5.4-9.2-.2 0-.3 0-.5-.1-.1-1-.1-2.1-.1-3.1 0-1.2 0-2.4.1-3.6h11.6v3.6zM53.694 18.2c-3.7-3.7-3.7-6.8-2.4-9.8 1.1-2.7 2-5.4.7-8.1 9.7 2.6 12.6 11 6.8 17.9.6.1 1 .6 1.1 1.1 1 3.8 1.6 9 1.9 14.7h-11.4c.3-5.7 1-10.9 1.9-14.7.2-.5.7-1 1.4-1.1z"/><path d="M50.494 44.8c-1.6-.3-3.3-.1-4.9-.5-5.1-1.4-6.4-8-2.3-11.3 1.5-1.2 3.4-1.6 5.3-2.1.4-4.5 1.2-11.3 2.2-13-3.8-5-2.1-8.4-.9-11.5-1.9-1.2-4-2.2-6.2-2.9-10.2-3.2-22.1-.5-29.8 7-7.7 7.5-10.8 19.3-7.7 29.6 1.5 5 4.4 9.5 8.2 13 5.3 4.8 12.4 7.6 19.6 7.6 5.6 0 11.2-1.8 15.8-5 1.5-1 4-2.5 4.6-4.3 1.1-2.7-.1-6-3.9-6.6zm-38.4-12.4c0-2.7 2.2-5 5-5s5 2.2 5 5-2.2 5-5 5-5-2.3-5-5zm12.2 17.9c-2.6 0-4.6-2.1-4.6-4.6 0-2.5 2.1-4.6 4.6-4.6 2.5 0 4.6 2.1 4.6 4.6 0 2.5-2.1 4.6-4.6 4.6zm-.8-27.4c-3 0-5.5-2.5-5.5-5.5s2.4-5.5 5.5-5.5c3 0 5.5 2.5 5.5 5.5 0 3.1-2.5 5.5-5.5 5.5zm16.8-14.1c3.4 0 6.1 2.7 6.1 6.1 0 3.4-2.7 6.1-6.1 6.1-3.4 0-6.1-2.7-6.1-6.1 0-3.4 2.7-6.1 6.1-6.1zm-2.3 44.9c-2.1 0-3.8-1.7-3.8-3.8 0-2.1 1.7-3.8 3.8-3.8 2.1 0 3.8 1.7 3.8 3.8 0 2.1-1.7 3.8-3.8 3.8z"/></svg>